<?xml version="1.0" encoding="utf-8"?>
<!-- Generator: Adobe Illustrator 26.2.1, SVG Export Plug-In . SVG Version: 6.00 Build 0)  -->
<svg version="1.1" id="Layer_1" xmlns="http://www.w3.org/2000/svg" xmlns:xlink="http://www.w3.org/1999/xlink" x="0px" y="0px"
	 viewBox="0 0 70.6 70.6" style="enable-background:new 0 0 70.6 70.6;" xml:space="preserve">
<style type="text/css">
	.st0{fill:#FFFFFF;}
</style>
<path class="st0" d="M59.4,26.3c-2.7-2.2-5.3-1.7-5.3-1.7s0.6-0.8,0.3-3.4s-2.9-5.5-5.1-5.2c-2.1,0.3-1.8,3.3-1.8,7.6
	c-0.1,4.2-1.8,5.4-6.6,8.3c-4.7,2.8-6.6,1.6-15-0.5c-8.4-2.2-14.1,3-15.5,4.2s0.2,3.3,0.2,3.3c2.8,6.4,8,7.7,8,7.7S17,48.9,17.3,52
	s1.8,3.1,1.8,3.1c3.3-6,6.3-7.4,6.3-7.4c2.5,0.1,3.7-0.1,3.7-0.1c4.4,3,11.1,1.1,12.2,0.7c1.1-0.4,2.9-1.9,0.4-1.8
	c-2.5,0-5.1-1.7-5.1-1.7c6-2.4,10.4-11.2,12.3-13.9s8.8-2.4,10.6-2.3C61.3,28.6,62.1,28.5,59.4,26.3z M20.2,33.6
	c0.7,0,1.2,0.6,1.2,1.2c0,0.7-0.6,1.2-1.2,1.2c-0.7,0-1.2-0.6-1.2-1.2C19,34.1,19.6,33.6,20.2,33.6z M35,44.3L32.4,43
	c0,0-0.5-0.2-0.8,0.1c-0.3,0.4-0.2,0.7,0.1,0.9s5.9,2.9,7.8,3.4c0,0-3,1.5-6.9,0.3c-3.8-1.2-4.7-2.3-4.7-2.3s-1.6-0.1-0.9,1.2
	c0,0-7.3,0.6-10.7-2.4c-3.3-3-4.5-4.9-4.9-7c0,0,3.6-0.2,6.1,1.2s5,4.5,10.8,4.3c5.8-0.3,13.3-3.5,13.3-3.5S40.7,41.8,35,44.3z"/>
<path class="st0" d="M60.3,10.3C53.9,4,45,0,35.3,0S16.7,4,10.4,10.3S0,25.6,0,35.3s4,18.6,10.3,24.9s15.2,10.3,24.9,10.3
	s18.6-4,24.9-10.3S70.6,45,70.6,35.3S66.6,16.7,60.3,10.3z M55.5,15.1c5.2,5.2,8.4,12.3,8.4,20.2c0,6.6-2.2,12.7-6,17.5l-20-20
	l-20-20c4.8-3.8,10.9-6,17.5-6C43.2,6.7,50.3,9.9,55.5,15.1z M15.1,55.5c-5.2-5.2-8.4-12.3-8.4-20.2c0-6.8,2.4-13,6.3-17.9
	l20.1,20.1l20.1,20.1c-4.9,4-11.1,6.3-17.9,6.3C27.4,63.9,20.3,60.7,15.1,55.5z"/>
</svg>
