<?xml version="1.0" encoding="utf-8"?>
<!-- Generator: Adobe Illustrator 26.2.1, SVG Export Plug-In . SVG Version: 6.00 Build 0)  -->
<svg version="1.1" id="Layer_1" xmlns="http://www.w3.org/2000/svg" xmlns:xlink="http://www.w3.org/1999/xlink" x="0px" y="0px"
	 viewBox="0 0 101.4 101.4" style="enable-background:new 0 0 101.4 101.4;" xml:space="preserve">
<style type="text/css">
	.st0{fill:#FFFFFF;}
</style>
<g id="HuzC8L.tif">
	<g>
		<path class="st0" d="M16.9,15.1c21.7,0,43.3,0,65,0c2.1,0.8,2.8,2.3,2.8,4.5c-0.1,19.2,0,38.4,0,57.5c0,2.4-1.5,3.8-3.8,3.8
			c-21,0-41.9,0-62.9,0c-0.3,0-0.7,0-1-0.1c-1.5-0.3-2.3-1.4-2.8-2.7c0-20.1,0-40.2,0-60.3C14.6,16.5,15.6,15.6,16.9,15.1z
			 M77.7,26.9c0-1.8,0-3.5,0-5.2c0-1.5-0.3-1.8-1.8-1.8c-18.4,0-36.8,0-55.2,0c-1.6,0-1.9,0.3-1.9,1.8c0,17.6,0,35.2,0,52.8
			c0,1.6,0.3,1.9,1.8,1.9c18.4,0,36.8,0,55.1,0c0.2,0,0.4,0,0.6,0c0.8,0,1.2-0.5,1.3-1.3c0-1,0-2,0-2.9c0-0.9,0-1.8,0-2.8
			c0.4,0,0.8,0,1.2,0c0.7-0.1,1.2-0.5,1.2-1.2c0-2.3,0-4.7,0-7.1c0-0.7-0.5-1.1-1.2-1.2c-0.4,0-0.8,0-1.1,0c0-7.9,0-15.7,0-23.5
			c0.2,0,0.5,0,0.7,0c1.3,0,1.6-0.4,1.6-1.7c0-1.8,0-3.7,0-5.5c0-1.7-0.1-2.4-2.1-2.2C77.9,26.9,77.8,26.9,77.7,26.9z"/>
		<path class="st0" d="M18.9,83.4c3.9,0,7.8,0,11.7,0c0,0.4,0,0.9,0,1.3c-0.1,0.7-0.5,1-1.2,1c-3.1,0-6.2,0-9.2,0
			c-0.8,0-1.2-0.4-1.3-1.2C18.8,84.2,18.9,83.8,18.9,83.4z"/>
		<path class="st0" d="M68.3,83.4c3.9,0,7.8,0,11.8,0c0,0.4,0,0.8,0,1.2c-0.1,0.7-0.5,1.1-1.1,1.1c-3.2,0-6.3,0-9.5,0
			c-0.7,0-1.1-0.4-1.1-1.1C68.2,84.3,68.3,83.9,68.3,83.4z"/>
		<path class="st0" d="M21.3,22.2c18,0,36,0,54,0c0,1.5,0,3,0,4.7c-1,0-2,0-3,0c-1.3,0-1.6,0.4-1.6,1.6c0,2.1,0,4.2,0,6.2
			c0,1.2,0.4,1.6,1.6,1.6c1,0,2,0,3.1,0c0,7.8,0,15.6,0,23.5c-1.1,0-2.1,0-3.2,0c-1,0-1.4,0.4-1.4,1.4c0,2.2,0,4.4,0,6.5
			c0,1.1,0.4,1.4,1.5,1.4c1.1,0,2.1,0,3.2,0c0,1.6,0,3.1,0,4.7c-18,0-36,0-54,0C21.3,56.7,21.3,39.5,21.3,22.2z M68,40.7
			c-0.2,0.2-0.4,0.4-0.6,0.5c-0.8,0.8-1.7,1.7-2.6,2.5c-0.6,0.6-1.3,0.7-1.8,0.2c-0.5-0.5-0.5-1.2,0.1-1.8c0.2-0.2,0.3-0.3,0.5-0.5
			c0.9-0.9,1.7-1.7,2.6-2.6c-1.9-1.5-3.9-2.4-6.3-2.6c0,0.3,0,0.5,0,0.8c0,1.2,0,2.5,0,3.8c0,0.9-0.7,1.4-1.4,1.2
			c-0.7-0.2-0.9-0.7-0.9-1.3c0-1.5,0-2.9,0-4.5c-2.4,0.2-4.4,1.1-6.2,2.6c0.2,0.2,0.4,0.4,0.5,0.6c0.8,0.8,1.7,1.7,2.5,2.5
			c0.7,0.7,0.7,1.3,0.2,1.9c-0.5,0.5-1.2,0.5-1.9-0.2c-0.2-0.2-0.5-0.4-0.7-0.7c-0.8-0.8-1.5-1.6-2.3-2.4c-1.5,2-2.4,4-2.6,6.3
			c0.2,0,0.4,0,0.5,0c1.3,0,2.7,0,4,0c0.8,0,1.3,0.5,1.3,1.2s-0.5,1.2-1.3,1.2c-0.4,0-0.7,0-1.1,0c-1.1,0-2.2,0-3.4,0
			c0.3,2.4,1.1,4.4,2.6,6.3c1.1-1.1,2.1-2.2,3.2-3.2c0.6-0.6,1.4-0.6,1.9,0c0.4,0.5,0.3,1.1-0.2,1.7c-1,1-2.1,2.1-3.2,3.2
			c1.9,1.5,3.9,2.4,6.3,2.6c0-0.3,0-0.6,0-0.8c0-1.2,0-2.5,0-3.8c0-0.7,0.5-1.2,1.1-1.2c0.6,0,1.1,0.4,1.2,1.1c0,0.2,0,0.4,0,0.7
			c0,1.3,0,2.7,0,4.1c2.4-0.2,4.4-1.1,6.2-2.6c-0.2-0.2-0.4-0.4-0.5-0.6c-0.9-0.9-1.8-1.8-2.7-2.7c-0.5-0.5-0.5-1.2,0-1.7
			c0.5-0.4,1.1-0.5,1.7,0c0.8,0.7,1.5,1.5,2.2,2.2c0.3,0.3,0.7,0.7,1.1,1.1c1.5-1.9,2.3-3.9,2.6-6.2c-0.3,0-0.5,0-0.8,0
			c-1.3,0-2.6,0-3.8,0c-0.7,0-1.2-0.5-1.2-1.1c0-0.6,0.4-1.1,1.1-1.2c0.2,0,0.4,0,0.7,0c1.3,0,2.7,0,4.1,0
			C70.3,44.5,69.4,42.5,68,40.7z M37.7,54.6c0-2.1,0-4.2,0-6.3c0-2.1-1.5-3.7-3.5-3.8c-2,0-3.6,1.6-3.6,3.8c0,4.2,0,8.3,0,12.5
			c0,2.1,1.5,3.7,3.5,3.8c2,0,3.5-1.6,3.6-3.8C37.7,58.7,37.7,56.7,37.7,54.6z M40,53.7c3.2-2.9,3.1-8.4-0.1-11.5
			c-3.4-3.3-8.8-3.1-12,0.5c-3.2,3.7-2.1,8.8,0.3,11c0-1.8,0-3.5,0-5.2c0-0.7,0.1-1.4,0.3-2c0.8-2.8,3.6-4.5,6.3-4.2
			C37.8,42.7,40,45,40,48C40,49.8,40,51.7,40,53.7z"/>
		<path class="st0" d="M58.9,44.6c1.9,0,3.5,1.6,3.5,3.6c0,1.9-1.6,3.5-3.5,3.5c-1.9,0-3.5-1.6-3.5-3.5
			C55.3,46.2,56.9,44.5,58.9,44.6z"/>
	</g>
</g>
</svg>
