<?xml version="1.0" encoding="utf-8"?>
<!-- Generator: Adobe Illustrator 25.4.1, SVG Export Plug-In . SVG Version: 6.00 Build 0)  -->
<svg version="1.1" id="Layer_1" xmlns="http://www.w3.org/2000/svg" xmlns:xlink="http://www.w3.org/1999/xlink" x="0px" y="0px"
	 viewBox="0 0 101.4 101.4" style="enable-background:new 0 0 101.4 101.4;" xml:space="preserve">
<style type="text/css">
	.st0{fill:#FFFFFF;}
</style>
<g>
	<path class="st0" d="M82.5,65.3c-1-8.4-8.8-14.2-17.1-12.7c-6.8,1.2-11.8,6.9-12.2,13.7c-0.3,6.9,4.1,13.1,10.7,15
		c0.9,0.2,1.8,0.4,2.6,0.6c0.9,0,1.8,0,2.7,0c0.6-0.1,1.2-0.2,1.8-0.4c6.1-1.3,10.7-6.4,11.4-12.6c0-0.1,0.1-0.3,0.1-0.4
		c0-0.9,0-1.8,0-2.7C82.5,65.6,82.5,65.4,82.5,65.3z M66.8,70.2l-3.5,3.5c-0.7,0.7-1.9,0.7-2.7,0l0,0c-0.7-0.7-0.7-1.9,0-2.7
		l3.5-3.5c0.7-0.7,1.9-0.7,2.7,0S67.6,69.5,66.8,70.2z M66.8,64.8c-0.7,0.7-1.9,0.7-2.7,0l-3.5-3.5c-0.7-0.7-0.7-1.9,0-2.7l0,0
		c0.7-0.7,1.9-0.7,2.7,0l3.5,3.5C67.6,62.9,67.6,64.1,66.8,64.8z M75.7,73.7c-0.7,0.7-1.9,0.7-2.7,0l-3.6-3.5
		c-0.7-0.7-0.7-1.9,0-2.7l0,0c0.7-0.7,1.9-0.7,2.7,0l3.6,3.5C76.5,71.8,76.5,73,75.7,73.7z M75.8,61.3l-3.6,3.5
		c-0.7,0.7-1.9,0.7-2.7,0l0,0c-0.7-0.7-0.7-1.9,0-2.7l3.6-3.5c0.7-0.7,1.9-0.7,2.7,0l0,0C76.6,59.4,76.6,60.6,75.8,61.3z"/>
	<path class="st0" d="M44.1,30.1c0.6,0,1.1,0,1.7,0c0,1.2,0,2.4,0,3.6c0,1.3,0.7,2.1,2.1,2.1c2.2,0,4.5,0,6.7,0
		c1.6,0,2.3-0.7,2.3-2.3c0-1.1,0-2.2,0-3.4c0.7,0,1.3,0,1.8,0c0.8,0,1.5-0.5,1.7-1.3c0.3-0.8-0.1-1.5-0.6-2
		c-2.2-2.2-4.3-4.4-6.5-6.6c-0.4-0.4-1-0.8-1.4-1.2c-0.3,0-0.7,0-1,0c-0.3,0.2-0.6,0.4-0.9,0.6c-2.4,2.4-4.8,4.9-7.2,7.3
		c-0.6,0.6-0.8,1.3-0.5,2.1C42.6,29.8,43.2,30.1,44.1,30.1z"/>
	<path class="st0" d="M29.9,54.2c8.1,0,16.2,0,24.3,0c0.3,0,0.7-0.2,1-0.4c1.4-1,2.7-2.1,4.2-3c2.1-1.2,4.4-1.8,6.8-2.2
		c-0.3,0-0.6,0-0.9,0c-11.8,0-23.6,0-35.3,0c-1.1,0-2,0.3-2.5,1.4c0,0.9,0,1.9,0,2.8C27.9,53.9,28.8,54.2,29.9,54.2z"/>
	<path class="st0" d="M52.2,76.5c-0.1-0.1-0.3-0.2-0.5-0.2c-6.2,0-12.5,0-18.7,0c-1,0-1.8,0.8-1.8,1.8c0,0.4,0,0.8,0,1.2
		c-0.1,1.1,0.3,2,1.4,2.5c8.1,0,16.3,0,24.4,0c0,0,0-0.1,0-0.1C54.9,80.2,53.4,78.5,52.2,76.5z"/>
	<path class="st0" d="M49.7,72.6c0.2,0,0.4,0,0.6,0c-0.3-1.9-0.6-3.7-1-5.5c-0.2,0-0.4,0-0.7,0c-6.3,0-12.5,0-18.8,0
		c-1.1,0-2,0.3-2.5,1.4c0,0.9,0,1.9,0,2.8c0.5,1.1,1.3,1.4,2.5,1.4C36.5,72.5,43.1,72.6,49.7,72.6z"/>
	<path class="st0" d="M37,45c10.8,0,21.5,0,32.3,0c0.1,0,0.3,0,0.4,0c1,0,1.8-0.8,1.8-1.8c0-0.5,0-1,0-1.5c0-1.5-0.7-2.2-2.2-2.2
		c-5.4,0-10.8,0-16.2,0c-2.5,0-5,0-7.5,0c-3,0-6,0-8.9,0c-1.2,0-2,0.8-2,2c0,0.4,0,0.9,0,1.3C34.8,44.3,35.4,45,37,45z"/>
	<path class="st0" d="M32.9,57.9c-1,0-1.8,0.8-1.8,1.8c0,0.5,0,1,0,1.5c0,1.5,0.7,2.2,2.2,2.2c5.3,0,10.6,0,15.9,0
		c0.2,0,0.4,0,0.5,0c0.7-1.9,1.5-3.7,2.2-5.5C45.5,57.9,39.2,57.8,32.9,57.9z"/>
	<path class="st0" d="M51.9,57.9L51.9,57.9C51.9,57.9,51.9,57.9,51.9,57.9C51.9,57.9,51.9,57.9,51.9,57.9L51.9,57.9z"/>
	<path class="st0" d="M51.9,57.9C51.9,57.9,51.9,57.9,51.9,57.9L51.9,57.9z"/>
</g>
</svg>
