<?xml version="1.0" encoding="utf-8"?>
<!-- Generator: Adobe Illustrator 25.4.1, SVG Export Plug-In . SVG Version: 6.00 Build 0)  -->
<svg version="1.1" id="Layer_1" xmlns="http://www.w3.org/2000/svg" xmlns:xlink="http://www.w3.org/1999/xlink" x="0px" y="0px"
	 viewBox="0 0 101.4 101.4" style="enable-background:new 0 0 101.4 101.4;" xml:space="preserve">
<style type="text/css">
	.st0{fill:#FFFFFF;}
</style>
<g>
	<path class="st0" d="M53.5,18.7c-9.3,0-18.6,0-27.8,0c0,7.7,0,15.4,0,23.1c9.3,0,18.6,0,27.8,0C53.5,34.1,53.5,26.4,53.5,18.7z"/>
	<path class="st0" d="M81.5,32.6c-2.5,0-4.7,2.2-4.7,4.7s2.1,4.6,4.7,4.6c2.5,0,4.6-2.1,4.6-4.6C86.1,34.7,84,32.6,81.5,32.6z"/>
	<path class="st0" d="M30.1,59.4c-5,5.3-4.7,13.1-0.9,17.6c6.2-6.3,12.4-12.6,18.7-18.9C42.8,54.2,35,54.2,30.1,59.4z"/>
	<path class="st0" d="M31.6,79.3c4.9,4.1,12.8,4,17.8-1.3c5-5.3,4.4-13.1,0.9-17.3C44.1,66.9,37.9,73.1,31.6,79.3z"/>
	<path class="st0" d="M92,32.5c-0.7-1.4-1.6-2.8-2.7-4c-5.5-5.6-11-11.1-16.6-16.6c-0.1-0.1-0.2-0.1-0.2-0.2c-1.6,1.6-3.2,3.3-4.9,5
		c3.2,3.2,6.4,6.4,9.7,9.7c-3.4,1.5-5.8,3.8-6.9,7.3c-0.9,2.7-0.7,5.5,0.4,8.1c2.1,4.9,8.1,8.8,15.3,6.1c0,0.2,0,0.5,0,0.7
		c0,10.8,0,21.6,0,32.4c0,3.1-2.1,5.2-5.1,5c-2.4-0.2-4.2-2.1-4.2-4.7c0-1.6,0-3.2,0-4.8c0-5.2,0-10.4,0-15.6c0-5.7-4-9.7-9.7-9.7
		c-1.4,0-2.7,0-4.2,0c0-0.4,0-0.7,0-1c0-10.4,0-20.8,0-31.1c0-4.4-2.5-7.9-6.5-9.2c-1-0.3-2.1-0.4-3.1-0.5c-9.1,0-18.2,0-27.3,0
		c-5.6,0-9.6,4-9.6,9.6c0,3.6,0,7.1,0,10.7c0,20.8,0,41.5,0,62.3c0,0.4,0,0.8,0,1.1c15.5,0,31.1,0,46.6,0c0-2.9,0-5.8,0-8.7
		c0-8.4,0-16.8,0-25.2c0-0.3,0-0.6,0-1c2.3,0,4.6,0,7,0c0,0.4,0,0.7,0,1c0,7.2,0,14.4,0,21.6c0,3.7,1.2,6.8,4,9.3
		c1.7,1.5,3.6,2.4,5.8,2.8c0.2,0,0.3,0.1,0.4,0.2c0.9,0,1.8,0,2.8,0c1.2-0.4,2.6-0.7,3.7-1.2c3.7-1.9,5.9-4.9,6.4-9.1
		c0-0.3,0.1-0.5,0.1-0.8c0-15.1,0-30.2,0-45.3C92.8,35.2,92.6,33.8,92,32.5z M81.5,41.9c-2.5,0-4.6-2.1-4.7-4.6
		c0-2.5,2.2-4.7,4.7-4.7c2.5,0,4.6,2.2,4.6,4.7C86.1,39.8,84,41.9,81.5,41.9z M25.7,18.7c9.3,0,18.5,0,27.8,0c0,7.7,0,15.4,0,23.1
		c-9.3,0-18.5,0-27.8,0C25.7,34.1,25.7,26.5,25.7,18.7z M56.2,72.1c-0.8,3.8-2.8,7-5.8,9.5C46,85.2,41,86.5,35.5,85
		c-6.8-1.8-10.8-6.4-12.2-13.2c-0.1-0.7-0.2-1.3-0.3-2c0-0.6,0-1.2,0-1.9c0-0.1,0-0.2,0.1-0.4c0.2-1,0.2-2,0.5-2.9
		c2-6.7,6.4-10.8,13.2-12.2c0.7-0.2,1.4-0.2,2.1-0.3c0.6,0,1.2,0,1.9,0c0.1,0,0.2,0,0.3,0.1c1,0.2,2,0.2,3,0.5
		C52.7,54.8,58,63.4,56.2,72.1z"/>
</g>
</svg>
