<?xml version="1.0" encoding="utf-8"?>
<!-- Generator: Adobe Illustrator 26.2.1, SVG Export Plug-In . SVG Version: 6.00 Build 0)  -->
<svg version="1.1" id="Layer_1" xmlns="http://www.w3.org/2000/svg" xmlns:xlink="http://www.w3.org/1999/xlink" x="0px" y="0px"
	 viewBox="0 0 101.4 101.4" style="enable-background:new 0 0 101.4 101.4;" xml:space="preserve">
<style type="text/css">
	.st0{fill:#FFFFFF;}
</style>
<g id="kR7ZPR.tif">
	<g>
		<path class="st0" d="M50.9,91c-0.4,0-0.8,0-1.3,0c-0.2-0.1-0.4-0.2-0.6-0.3c-5.2-1.9-9.9-4.5-14-8.2C25.3,74,20,63.2,19.5,50.3
			c-0.3-8.4-0.1-16.8-0.1-25.1c0-1.5,1-2.4,2.4-2.5c0.9,0,1.8-0.1,2.8-0.1C31.1,22,37,20,42.2,16.2c2.2-1.6,4.2-3.5,6.2-5.4
			c1.2-1.1,2.5-1.1,3.6,0c0.4,0.4,0.8,0.8,1.2,1.2c6.8,6.8,15.1,10.3,24.7,10.6c1.4,0,2.5,0.5,3.1,1.8c0,8.9,0,17.8,0,26.7
			c-0.2,1.5-0.3,2.9-0.5,4.4c-2.7,15-10.7,26.1-24.3,33.1C54.6,89.6,52.7,90.2,50.9,91z M28.9,50.3c0,11.8,9.6,21.3,21.3,21.4
			c11.8,0,21.4-9.6,21.4-21.4c0-11.8-9.6-21.3-21.3-21.4C38.5,29,28.9,38.5,28.9,50.3z"/>
		<path class="st0" d="M50.3,33.7c9.1,0,16.6,7.4,16.6,16.6c0,9.2-7.4,16.7-16.6,16.7c-9.1,0-16.6-7.5-16.6-16.6
			C33.7,41.2,41.1,33.7,50.3,33.7z M47.1,54.8c-0.2-0.2-0.4-0.4-0.6-0.6c-1.3-1.3-2.7-2.7-4-4c-1-1-2.5-1-3.4,0
			c-0.9,0.9-0.9,2.4,0,3.3c2.1,2.1,4.2,4.2,6.3,6.3c1,1,2.4,1,3.4,0c4.2-4.2,8.4-8.4,12.6-12.6c0.6-0.6,0.9-1.4,0.6-2.2
			c-0.5-1.9-2.7-2.4-4.1-1c-3.4,3.4-6.8,6.8-10.2,10.2C47.6,54.4,47.4,54.6,47.1,54.8z"/>
	</g>
</g>
</svg>
