<svg id="Layer_1" data-name="Layer 1" xmlns="http://www.w3.org/2000/svg" viewBox="0 0 215.2 153.1"><defs><style>.cls-1{fill:#fff;}.cls-2,.cls-5{fill:#010101;}.cls-3{fill:#263239;}.cls-4{fill:#ebebeb;}.cls-5{font-size:15.59px;font-family:MyriadPro-Semibold, Myriad Pro;font-weight:600;}</style></defs><path class="cls-1" d="M198.5,119.2a79.1,79.1,0,0,1-22.8,6.9c-4.8.7-9.7,1.1-14.9,1.7v-3.1c.1-5.9,0-11.8-1.9-17.5-4.2-12.8-12.7-21.6-25.2-26.3l-1.9-.7a33.3,33.3,0,0,0,10.1-22.9c7.7,0,15.2-.1,22.7.1a36.6,36.6,0,0,1,8.1,1,34.1,34.1,0,0,1,25.5,28.2,5,5,0,0,0,.3,1.3Z" transform="translate(-1.3 -2.1)"/><path class="cls-1" d="M154.4,130.5v14.6a2,2,0,0,1-1.4,2.3,81.9,81.9,0,0,1-21.7,6.3c-22,3.5-43.4.9-64.5-5.5-3.4-1-3.4-1-3.4-4.6,0-8.5-.1-17,.1-25.6a33.6,33.6,0,0,1,32-32.9c9.3-.4,18.7-.4,28,0,13.3.6,26.1,11.6,29.6,24.6,1.5,5.6,1.3,11.2,1.3,16.9Z" transform="translate(-1.3 -2.1)"/><path class="cls-1" d="M75.9,57.5a33.4,33.4,0,0,0,10,22.6c-21.8,8.3-30.5,24.6-28.7,47.4-3.4-.4-6.5-.5-9.6-.9a191.1,191.1,0,0,1-29.1-6.4,2.2,2.2,0,0,1-2-2.6c.1-8.7,0-17.3,0-25.9a34.3,34.3,0,0,1,28-33.8,30.1,30.1,0,0,1,4.2-.5H75.9Z" transform="translate(-1.3 -2.1)"/><path class="cls-1" d="M82.2,56.3A26.7,26.7,0,1,1,108.8,83,26.7,26.7,0,0,1,82.2,56.3Z" transform="translate(-1.3 -2.1)"/><path class="cls-1" d="M62.1,2.1A26.6,26.6,0,0,1,88.7,28.6a3.3,3.3,0,0,1-1.2,2.8,32.5,32.5,0,0,0-11,18.5A3.7,3.7,0,0,1,74.9,52c-9.3,5-18.6,4.8-27.4-.9S34.8,37,35.5,26.6C36.4,12.8,48.2,2.1,62.1,2.1Z" transform="translate(-1.3 -2.1)"/><path class="cls-1" d="M153.1,2.1c14.2.1,26,11.3,26.6,25.1S169.9,54,155.5,55.3a25.8,25.8,0,0,1-12.3-1.8,2.1,2.1,0,0,1-1.7-1.9,32.6,32.6,0,0,0-14.1-22.5c-1-.6-1-1.4-1-2.4A26.9,26.9,0,0,1,153.1,2.1Z" transform="translate(-1.3 -2.1)"/><rect class="cls-1" x="2.5" y="96.1" width="210.2" height="39.81" rx="19.9"/><path class="cls-2" d="M194.1,140.6H23.7a22.4,22.4,0,0,1,0-44.8H194.1a22.4,22.4,0,1,1,0,44.8ZM23.7,100.8a17.4,17.4,0,0,0,0,34.8H194.1a17.4,17.4,0,1,0,0-34.8Z" transform="translate(-1.3 -2.1)"/><rect class="cls-3" x="180.3" y="112.7" width="11.6" height="11.62" rx="1.2"/><rect class="cls-4" x="185.3" y="107.7" width="11.6" height="11.62" rx="1.2"/><path class="cls-3" d="M196.5,122.2h-8.1a2.5,2.5,0,0,1-2.5-2.5v-8.1a2.5,2.5,0,0,1,2.5-2.5h8.1a2.5,2.5,0,0,1,2.5,2.5v8.1A2.5,2.5,0,0,1,196.5,122.2Zm-8.1-11.6a1,1,0,0,0-1,1v8.1a.9.9,0,0,0,1,1h8.1a1,1,0,0,0,1-1v-8.1a1.1,1.1,0,0,0-1-1Z" transform="translate(-1.3 -2.1)"/><text class="cls-5" transform="translate(20.8 122.1)">https://www.socialx....</text></svg>